<?xml version="1.0" standalone="no"?><!DOCTYPE svg PUBLIC "-//W3C//DTD SVG 1.1//EN" "http://www.w3.org/Graphics/SVG/1.1/DTD/svg11.dtd"><svg t="1648555658895" class="icon" viewBox="0 0 1024 1024" version="1.1" xmlns="http://www.w3.org/2000/svg" p-id="22159" xmlns:xlink="http://www.w3.org/1999/xlink" width="200" height="200"><defs><style type="text/css"></style></defs><path d="M112.896 345.2928l360.4992 182.784c13.1072 6.656 27.4432 9.9328 41.728 9.9328 14.6944 0 29.3888-3.4816 42.7008-10.4448l349.7984-182.4768a34.19648 34.19648 0 0 0 18.4832-30.5152c0-12.8512-7.1168-24.576-18.4832-30.5152l-349.7984-182.4768a92.49792 92.49792 0 0 0-84.4288-0.512l-360.4992 182.784c-11.6224 5.888-18.8416 17.664-18.8416 30.72s7.2192 24.832 18.8416 30.72z m379.0336-207.616c14.7456-7.4752 32.3072-7.3728 47.0016 0.256l338.688 176.6912-338.688 176.6912a51.4304 51.4304 0 0 1-47.0016 0.256L142.8992 314.624l349.0304-176.9472z" fill="#59260F" p-id="22160"></path><path d="M102.4512 533.1456l371.8656 188.5184a89.9584 89.9584 0 0 0 40.6528 9.6768c14.2848 0 28.5696-3.3792 41.5744-10.1888l360.7552-188.16a20.5056 20.5056 0 0 0 8.704-27.648 20.5056 20.5056 0 0 0-27.648-8.704L537.6 684.9024a49.09056 49.09056 0 0 1-44.7488 0.256L120.9856 496.64c-10.0864-5.12-22.4256-1.0752-27.5456 9.0112s-1.0752 22.3744 9.0112 27.4944z" fill="#59260F" p-id="22161"></path><path d="M898.3552 690.176L537.6 878.336c-13.9776 7.2704-30.72 7.3728-44.7488 0.256l-371.8656-188.5184c-10.0864-5.12-22.4256-1.0752-27.5456 9.0112s-1.0752 22.4256 9.0112 27.5456l371.8656 188.5184a89.9584 89.9584 0 0 0 40.6528 9.6768c14.2848 0 28.5696-3.3792 41.5744-10.1376l360.7552-188.16a20.5056 20.5056 0 0 0 8.704-27.648 20.49024 20.49024 0 0 0-27.648-8.704z" fill="#59260F" p-id="22162"></path></svg>