<?xml version="1.0" standalone="no"?><!DOCTYPE svg PUBLIC "-//W3C//DTD SVG 1.1//EN" "http://www.w3.org/Graphics/SVG/1.1/DTD/svg11.dtd"><svg t="1648555671370" class="icon" viewBox="0 0 1024 1024" version="1.1" xmlns="http://www.w3.org/2000/svg" p-id="22444" xmlns:xlink="http://www.w3.org/1999/xlink" width="200" height="200"><defs><style type="text/css"></style></defs><path d="M923.6992 824.576H93.696c-11.3152 0-20.48 9.1648-20.48 20.48s9.1648 20.48 20.48 20.48h830.0032c11.3152 0 20.48-9.1648 20.48-20.48s-9.1648-20.48-20.48-20.48zM144.9984 750.1824h719.2064c36.6592 0 66.4576-29.7984 66.4576-66.4576 0-30.464-20.5824-56.2176-48.5888-64.0512-6.656-91.7504-46.1824-177.0496-112.4864-241.7664-52.224-50.944-116.7872-84.9408-186.7776-99.2256 15.2064-17.3056 24.4736-39.8848 24.4736-64.6144 0-54.1184-44.032-98.1504-98.1504-98.1504-54.1184 0-98.1504 44.032-98.1504 98.1504 0 24.3712 8.96 46.6432 23.7568 63.7952-71.4752 13.824-137.4208 48.1792-190.5664 100.0448-66.048 64.4608-105.5232 149.3504-112.4352 240.6912-30.3104 6.144-53.1968 33.024-53.1968 65.1264-0.0512 36.6592 29.7984 66.4576 66.4576 66.4576zM451.9424 214.0672c0-31.5392 25.6512-57.1904 57.1904-57.1904s57.1904 25.6512 57.1904 57.1904c0 30.6176-24.2176 55.6032-54.4768 57.0368-1.6384 0-3.2768-0.1024-4.9664-0.1024-0.6144 0-1.2288 0.0512-1.8944 0.0512-29.6448-2.1504-53.0432-26.88-53.0432-56.9856z m-306.944 444.16h6.2976c11.1104 0 20.1728-8.8576 20.48-19.9168 4.8128-182.3744 151.04-325.3248 333.2608-326.2976 1.3824 0.0512 2.7136 0.2048 4.1472 0.2048 0.9216 0 1.7408-0.1024 2.6624-0.1536 180.7872 2.56 325.376 144.896 330.1888 326.1952a20.45952 20.45952 0 0 0 20.48 19.9168h1.7408c14.08 0 25.4976 11.4688 25.4976 25.4976s-11.4176 25.4976-25.4976 25.4976H144.9984c-14.08 0-25.4976-11.4176-25.4976-25.4976s11.4176-25.4464 25.4976-25.4464z" fill="#59260F" p-id="22445"></path><path d="M304.128 509.5424c3.7376 2.816 8.0896 4.1984 12.4416 4.1984a20.48 20.48 0 0 0 16.2816-8.0384c70.8096-92.5696 172.7488-92.8256 177.2544-92.9792a20.48 20.48 0 1 0 0.4608-40.96c-5.1712 0.0512-126.6176-0.3584-210.2784 109.056a20.48 20.48 0 0 0 3.84 28.7232z" fill="#59260F" p-id="22446"></path></svg>