<?xml version="1.0" standalone="no"?><!DOCTYPE svg PUBLIC "-//W3C//DTD SVG 1.1//EN" "http://www.w3.org/Graphics/SVG/1.1/DTD/svg11.dtd"><svg t="1648555667840" class="icon" viewBox="0 0 1024 1024" version="1.1" xmlns="http://www.w3.org/2000/svg" p-id="22302" xmlns:xlink="http://www.w3.org/1999/xlink" width="200" height="200"><defs><style type="text/css"></style></defs><path d="M937.6768 249.3952c-1.8432-5.2224-47.2064-127.3344-210.688-127.3344-117.1456 0-184.8832 47.9232-213.6576 74.8544-28.6208-26.88-96.1024-74.8544-213.3504-74.8544-163.4816 0-208.8448 122.1632-210.688 127.3344-0.768 2.2016-1.1776 4.5056-1.1776 6.8608v507.4432c0 8.1408 4.864 15.5136 12.3392 18.7392 2.6112 1.1264 5.4272 1.6896 8.1408 1.6896 5.0688 0 10.0864-1.8944 13.9776-5.4784 6.4512-5.9904 160.0512-144.8448 378.4704-13.824 6.3488 3.7888 14.1824 3.8912 20.6336 0.256 1.6896-0.9728 3.1744-2.0992 4.5056-3.4816 216.5248-127.1808 371.8144 11.1616 378.3168 17.1008 3.84 3.584 8.8576 5.4272 13.9264 5.4272a19.968 19.968 0 0 0 8.192-1.7408c7.4752-3.2768 12.288-10.6496 12.288-18.7392v-507.392c-0.0512-2.304-0.4608-4.6592-1.2288-6.8608zM215.9616 683.008a354.74944 354.74944 0 0 0-86.8864 39.9872V260.2496c7.2192-16.384 49.0496-97.2288 170.9056-97.2288 118.7328 0 177.3568 54.2208 192.7168 71.1168-0.256 43.3152-1.4848 265.728-1.6384 478.464-114.4832-58.0608-211.712-48.896-275.0976-29.5936z m681.9328 40.2432a363.45344 363.45344 0 0 0-88.6784-40.704 347.42784 347.42784 0 0 0-101.0688-15.0016c-51.2 0-110.8992 11.2128-175.872 44.1344 0.1024-212.6848 1.1776-434.3296 1.4336-477.2352 15.36-16.8448 74.3424-71.3728 193.3312-71.3728 122.368 0 163.6352 80.4352 170.9056 97.2288v462.9504z" fill="#59260F" p-id="22303"></path><path d="M918.2208 854.1696c-2.4064-1.6896-60.1088-42.0864-140.1344-62.208-101.4784-25.4976-192.8192-6.6048-265.3184 54.6304C440.32 784.64 349.2864 764.5696 248.2176 788.48c-79.7696 18.8928-137.1648 58.2656-139.5712 59.9552a20.48 20.48 0 0 0-5.1712 28.5184 20.48 20.48 0 0 0 28.5184 5.1712c2.0992-1.4336 210.8416-143.2576 366.4896 6.8608 3.9936 3.84 9.1136 5.7344 14.2336 5.7344 5.0688 0 10.1888-1.8944 14.1312-5.6832 64.6144-61.696 145.408-81.0496 240.128-57.6 72.9088 18.0736 127.0784 55.8592 127.5904 56.2176 9.2672 6.5536 22.016 4.352 28.5696-4.9152 6.5024-9.2672 4.3008-22.0672-4.9152-28.5696z" fill="#59260F" p-id="22304"></path></svg>